<svg xmlns="http://www.w3.org/2000/svg" style="display:none" aria-hidden="true">
  <symbol id="icon-leaf" viewBox="0 0 24 24" fill="none" stroke="currentColor" stroke-width="1.5" stroke-linecap="round" stroke-linejoin="round">
    <path d="M12 21c-4-3.5-7-7.5-7-12a7 7 0 0 1 14 0c0 4.5-3 8.5-7 12Z"/>
    <path d="M12 21V9"/>
    <path d="M9.5 11.5C11 9 14 7.5 16.5 8"/>
  </symbol>
  <symbol id="icon-home" viewBox="0 0 24 24" fill="none" stroke="currentColor" stroke-width="1.5" stroke-linecap="round" stroke-linejoin="round">
    <path d="M4 10.5 12 4l8 6.5V20a1 1 0 0 1-1 1h-5v-6H10v6H5a1 1 0 0 1-1-1v-9.5Z"/>
  </symbol>
  <symbol id="icon-cloud" viewBox="0 0 24 24" fill="none" stroke="currentColor" stroke-width="1.5" stroke-linecap="round" stroke-linejoin="round">
    <path d="M7 18h10a4 4 0 0 0 .5-8 5.5 5.5 0 0 0-10.6-1.5A4 4 0 0 0 7 18Z"/>
  </symbol>
  <symbol id="icon-tasks" viewBox="0 0 24 24" fill="none" stroke="currentColor" stroke-width="1.5" stroke-linecap="round" stroke-linejoin="round">
    <rect x="4" y="4" width="16" height="16" rx="3"/>
    <path d="M8 10h8M8 14h5"/>
  </symbol>
  <symbol id="icon-briefcase" viewBox="0 0 24 24" fill="none" stroke="currentColor" stroke-width="1.5" stroke-linecap="round" stroke-linejoin="round">
    <rect x="3" y="8" width="18" height="12" rx="2"/>
    <path d="M8 8V6a2 2 0 0 1 2-2h4a2 2 0 0 1 2 2v2"/>
    <path d="M3 13h18"/>
  </symbol>
  <symbol id="icon-house" viewBox="0 0 24 24" fill="none" stroke="currentColor" stroke-width="1.5" stroke-linecap="round" stroke-linejoin="round">
    <path d="M4 11 12 5l8 6"/>
    <path d="M6 10.5V19a1 1 0 0 0 1 1h3v-5h4v5h3a1 1 0 0 0 1-1v-8.5"/>
  </symbol>
  <symbol id="icon-sun" viewBox="0 0 24 24" fill="none" stroke="currentColor" stroke-width="1.5" stroke-linecap="round" stroke-linejoin="round">
    <circle cx="12" cy="12" r="4"/>
    <path d="M12 2v2M12 20v2M4.93 4.93l1.41 1.41M17.66 17.66l1.41 1.41M2 12h2M20 12h2M4.93 19.07l1.41-1.41M17.66 6.34l1.41-1.41"/>
  </symbol>
  <symbol id="icon-star" viewBox="0 0 24 24" fill="none" stroke="currentColor" stroke-width="1.5" stroke-linecap="round" stroke-linejoin="round">
    <path d="m12 3 2.2 4.8L19 8.5l-3.8 3.3 1.2 5.2L12 14.8 7.6 17l1.2-5.2L5 8.5l4.8-.7L12 3Z"/>
  </symbol>
  <symbol id="illus-focus" viewBox="0 0 160 120" fill="none">
    <rect width="160" height="120" rx="16" fill="#F5E4E2"/>
    <ellipse cx="80" cy="98" rx="28" ry="6" fill="#E8D3D1" opacity="0.6"/>
    <path d="M68 98V72c0-4 4-8 12-8s12 4 12 8v26" fill="#FAFAFA" stroke="#E8D3D1" stroke-width="1.5"/>
    <path d="M64 98h32" stroke="#E8D3D1" stroke-width="1.5" stroke-linecap="round"/>
    <path d="M80 38c-8 2-14 8-16 16M80 38c8 2 14 8 16 16M80 38V28" stroke="#C67C7C" stroke-width="1.5" stroke-linecap="round"/>
    <circle cx="68" cy="52" r="5" fill="#E2B4AC"/>
    <circle cx="92" cy="48" r="6" fill="#C67C7C" opacity="0.85"/>
    <circle cx="76" cy="44" r="4" fill="#E2B4AC" opacity="0.8"/>
    <circle cx="86" cy="58" r="4.5" fill="#C67C7C" opacity="0.7"/>
    <circle cx="72" cy="60" r="3.5" fill="#E2B4AC"/>
    <path d="M58 56c4-6 10-10 22-12" stroke="#C67C7C" stroke-width="1" stroke-linecap="round" opacity="0.5"/>
    <path d="M102 54c-4-6-10-10-22-12" stroke="#C67C7C" stroke-width="1" stroke-linecap="round" opacity="0.5"/>
  </symbol>
  <symbol id="illus-brain" viewBox="0 0 80 80" fill="none">
    <path d="M52 62c8-2 14-10 14-20 0-6-2-11-6-14 1-8-4-15-12-16-3-5-9-8-16-8-10 0-18 8-18 18 0 2 .5 4 1 6-5 4-8 10-8 17 0 12 10 22 22 22 4 0 8-1 11-3" fill="#FCE9E7" stroke="#C67C7C" stroke-width="1.5" stroke-linejoin="round"/>
    <path d="M40 18c-2 6-1 12 2 17M44 16c3 5 5 11 4 17" stroke="#C67C7C" stroke-width="1.2" stroke-linecap="round" opacity="0.6"/>
    <circle cx="36" cy="12" r="4" fill="#E2B4AC"/>
    <circle cx="44" cy="8" r="3.5" fill="#C67C7C" opacity="0.8"/>
    <circle cx="48" cy="14" r="3" fill="#E2B4AC"/>
    <circle cx="40" cy="6" r="2.5" fill="#C67C7C" opacity="0.7"/>
    <path d="M32 10c2-4 6-6 10-5" stroke="#C67C7C" stroke-width="1" stroke-linecap="round" opacity="0.5"/>
    <path d="M50 12c-1-4-5-7-9-6" stroke="#C67C7C" stroke-width="1" stroke-linecap="round" opacity="0.5"/>
  </symbol>
  <symbol id="illus-focus-small" viewBox="0 0 80 64" fill="none">
    <ellipse cx="40" cy="56" rx="18" ry="4" fill="#E8D3D1" opacity="0.5"/>
    <path d="M34 56V40c0-3 3-5 6-5s6 2 6 5v16" fill="#FAFAFA" stroke="#E8D3D1" stroke-width="1.2"/>
    <path d="M32 56h16" stroke="#E8D3D1" stroke-width="1.2" stroke-linecap="round"/>
    <circle cx="36" cy="32" r="3.5" fill="#E2B4AC"/>
    <circle cx="44" cy="30" r="4" fill="#C67C7C" opacity="0.85"/>
    <circle cx="40" cy="24" r="2.5" fill="#E2B4AC"/>
    <path d="M40 24V18" stroke="#C67C7C" stroke-width="1" stroke-linecap="round"/>
  </symbol>
</svg>
